HIERARCHY
ROOT Hips
{
	OFFSET -3.958830 18.904000 13.208200
	CHANNELS 6 Xposition Yposition Zposition Zrotation Yrotation Xrotation 
	JOINT LHipJoint
	{
		OFFSET 0.000000 0.000000 0.000000
		CHANNELS 3 Zrotation Yrotation Xrotation
		JOINT LeftUpLeg
		{
			OFFSET 1.800000 -1.400000 0.085000
			CHANNELS 3 Zrotation Yrotation Xrotation
			JOINT LeftLeg
			{
				OFFSET 2.215000 -6.000000 0.000000
				CHANNELS 3 Zrotation Yrotation Xrotation
				JOINT LeftFoot
				{
					OFFSET 2.500000 -6.900000 0.000000
					CHANNELS 3 Zrotation Yrotation Xrotation
					JOINT LeftToeBase
					{
						OFFSET 0.200000 -0.500000 1.950000
						CHANNELS 3 Zrotation Yrotation Xrotation
						End Site
						{
							OFFSET 0.000000 0.000000 0.000000
						}
					}
				}
			}
		}
	}
	JOINT RHipJoint
	{
		OFFSET 0.000000 0.000000 0.000000
		CHANNELS 3 Zrotation Yrotation Xrotation
		JOINT RightUpLeg
		{
			OFFSET -1.800000 -1.400000 0.085000
			CHANNELS 3 Zrotation Yrotation Xrotation
			JOINT RightLeg
			{
				OFFSET -2.215000 -6.000000 0.000000
				CHANNELS 3 Zrotation Yrotation Xrotation
				JOINT RightFoot
				{
					OFFSET -2.500000 -6.900000 0.000000
					CHANNELS 3 Zrotation Yrotation Xrotation
					JOINT RightToeBase
					{
						OFFSET -0.200000 -0.500000 1.950000
						CHANNELS 3 Zrotation Yrotation Xrotation
						End Site
						{
							OFFSET 0.000000 0.000000 0.000000
						}
					}
				}
			}
		}
	}
	JOINT LowerBack
	{
		OFFSET 0.000000 0.000000 0.000000
		CHANNELS 3 Zrotation Yrotation Xrotation
		JOINT Spine
		{
			OFFSET -0.087000 1.940000 -0.288900
			CHANNELS 3 Zrotation Yrotation Xrotation
			JOINT Spine1
			{
				OFFSET 0.000000 1.950000 0.060000
				CHANNELS 3 Zrotation Yrotation Xrotation
				JOINT Neck
				{
					OFFSET 0.000000 0.000000 0.000000
					CHANNELS 3 Zrotation Yrotation Xrotation
					JOINT Neck1
					{
						OFFSET 0.000000 1.600000 0.340000
						CHANNELS 3 Zrotation Yrotation Xrotation
						JOINT Head
						{
							OFFSET 0.000000 1.667000 -0.240000
							CHANNELS 3 Zrotation Yrotation Xrotation
							End Site
							{
								OFFSET 0.000000 0.000000 0.000000
							}
						}
					}
				}
				JOINT LeftShoulder
				{
					OFFSET 0.000000 0.000000 0.000000
					CHANNELS 3 Zrotation Yrotation Xrotation
					JOINT LeftArm
					{
						OFFSET 2.700000 1.550000 -0.730000
						CHANNELS 3 Zrotation Yrotation Xrotation
						JOINT LeftForeArm
						{
							OFFSET 5.450000 0.000000 0.000000
							CHANNELS 3 Zrotation Yrotation Xrotation
							JOINT LeftHand
							{
								OFFSET 3.450000 0.000000 0.000000
								CHANNELS 3 Zrotation Yrotation Xrotation
								JOINT LeftHandIndex1
								{
									OFFSET 0.750000 0.000000 0.000000
									CHANNELS 3 Zrotation Yrotation Xrotation
									End Site
									{
										OFFSET 0.000000 0.000000 0.000000
									}
								}
							}
						}
					}
				}
				JOINT RightShoulder
				{
					OFFSET 0.000000 0.000000 0.000000
					CHANNELS 3 Zrotation Yrotation Xrotation
					JOINT RightArm
					{
						OFFSET -2.700000 1.550000 -0.730000
						CHANNELS 3 Zrotation Yrotation Xrotation
						JOINT RightForeArm
						{
							OFFSET -5.450000 0.000000 0.000000
							CHANNELS 3 Zrotation Yrotation Xrotation
							JOINT RightHand
							{
								OFFSET -3.450000 0.000000 0.000000
								CHANNELS 3 Zrotation Yrotation Xrotation
								JOINT RightHandIndex1
								{
									OFFSET -0.750000 0.000000 0.000000
									CHANNELS 3 Zrotation Yrotation Xrotation
									End Site
									{
										OFFSET 0.000000 0.000000 0.000000
									}
								}
							}
						}
					}
				}
			}
		}
	}
}
MOTION
Frames: 7
Frame Time: 0.016667
0.688670 17.176920 -4.094670 -164.448797 82.692523 -170.717859 -15.502914 12.959018 2.923362 -1.126256 -2.411024 -14.375280 -6.751573 5.001682 12.532733 -0.772224 3.433419 3.358503 1.004960 0.859930 0.884440 18.046980 -9.711996 3.979492 -14.919423 5.181197 -36.468907 15.670907 -16.228719 47.075261 -1.186549 -8.564865 1.318957 0.620510 -0.048460 0.187380 -3.563469 -2.783444 -7.979775 7.535798 -4.078230 18.416213 -0.872718 -4.048984 11.771726 2.384834 1.783011 -7.864519 0.970032 0.577671 35.417568 -7.687980 4.138120 -13.791170 4.536137 -21.577904 -0.516530 23.138869 -33.659096 -4.266342 8.785343 -8.925278 -0.716440 -3.884164 2.971451 0.341380 0.153830 0.101750 0.219310 -8.568588 19.876495 2.601614 -10.123552 29.816266 0.575475 -12.471686 17.401432 -1.665589 2.077720 -1.593195 -0.052100 0.187390 -0.386300 -0.292100 
0.608180 17.182430 -4.076690 -161.067789 83.272904 -168.102976 -15.466778 12.979226 2.863137 -1.065912 -2.410503 -14.717910 -6.039348 5.026658 13.700131 -0.787406 3.453201 3.354202 1.039700 0.916200 0.899040 18.083401 -9.708161 3.995851 -14.508707 5.920709 -35.172308 15.387792 -17.878143 52.047949 -1.447604 -9.534847 1.052152 0.659920 -0.031270 0.184660 -3.491159 -2.826183 -7.983340 7.624453 -3.738263 19.799630 -1.076490 -3.620990 12.337193 2.532533 1.704569 -7.750384 0.947432 0.540796 34.304679 -7.657360 3.961080 -14.255820 5.688028 -20.567019 -0.802971 27.200287 -32.694111 -5.983059 10.998795 -7.229063 -1.113865 -3.923963 2.955699 0.327100 0.168120 0.107240 0.242480 -10.056608 19.119028 2.703777 -14.034159 28.319302 -0.813203 -14.519112 15.260435 -2.075527 2.086238 -1.647387 -0.049940 0.222210 -0.403980 -0.280420 
0.529750 17.173060 -4.061420 -155.635872 84.083285 -162.927423 -15.381100 12.939174 2.814547 -1.114495 -2.528113 -15.622280 -5.418243 5.005210 14.712038 -0.764315 3.422027 3.367852 1.056420 0.963230 0.878400 18.176763 -9.697528 4.026384 -13.985078 6.716019 -34.128392 14.935860 -19.413770 56.805534 -1.695672 -10.479085 0.806938 0.681380 0.003060 0.202140 -3.449322 -2.755419 -7.993523 8.050490 -3.392593 20.480803 -1.478570 -3.113766 12.579889 2.577325 1.470824 -7.652371 0.696047 0.672002 33.019348 -7.595330 3.945820 -13.516330 6.544079 -19.402082 -0.949107 30.476835 -31.604783 -7.394372 13.610244 -6.507950 -1.428400 -3.959812 3.014021 0.267010 0.203320 0.097300 0.277860 -11.101144 18.261217 2.786667 -17.269595 26.659712 -1.874275 -16.263672 13.959419 -2.406774 2.102782 -1.737153 -0.021560 0.219020 -0.423840 -0.241690 
0.464360 17.153900 -4.047750 -137.511226 85.365049 -144.078582 -15.071610 12.903407 2.776324 -0.837513 -2.747271 -17.458994 -5.066571 4.955893 15.183288 -0.751995 3.350996 3.394547 1.070680 1.011000 0.858250 18.511769 -9.562912 4.065071 -12.878208 7.898663 -33.617014 14.039015 -20.443674 61.326928 -1.918314 -11.283235 0.616171 0.702200 0.055400 0.222930 -3.339954 -2.292962 -8.025011 9.496280 -2.911676 19.844923 -2.272608 -2.258579 12.363281 2.511081 1.017197 -7.264588 0.145341 0.714302 31.530010 -7.653240 3.739510 -12.804930 7.234811 -17.668227 -1.175213 32.086861 -31.369337 -8.222418 17.111811 -6.349018 -1.803930 -3.996336 3.092193 0.190730 0.249240 0.081990 0.315600 -11.840710 16.947615 2.486995 -19.221582 25.797421 -2.633612 -18.946505 13.354765 -2.939166 2.110842 -1.836515 0.010550 0.231540 -0.437740 -0.193990 
0.403440 17.137670 -4.032990 -95.136634 86.514158 -100.839018 -15.115920 13.313042 2.865746 -0.136546 -2.884586 -19.616444 -5.142213 5.093026 15.454721 -0.749507 3.413255 3.360368 1.034850 0.984130 0.800070 18.487388 -9.056008 3.990096 -11.093865 9.233019 -32.430904 12.299362 -20.232538 64.872662 -2.018665 -11.721512 0.532155 0.692620 0.107830 0.219890 -3.478001 -1.532901 -8.067745 11.074567 -2.133612 18.868915 -3.183148 -1.059183 12.130288 2.303716 0.438838 -7.116681 -0.725777 0.835361 30.913946 -7.208310 3.332110 -11.804190 7.721453 -16.196423 -1.124759 32.274095 -30.777167 -8.595565 21.894424 -6.467519 -2.321656 -4.033231 3.145436 0.148470 0.283210 0.033720 0.317260 -12.236771 16.158952 2.298056 -20.487717 25.268229 -3.603478 -22.619838 12.608477 -3.591710 2.121403 -1.909611 0.005590 0.238130 -0.406710 -0.172110 
0.340270 17.127780 -4.018490 -50.809421 86.099775 -55.980478 -15.784025 13.329672 2.926887 0.683871 -2.967464 -21.138768 -5.498811 5.257665 15.685156 -0.758714 3.499271 3.349264 0.954350 0.867870 0.725020 17.817914 -9.091324 3.889842 -9.206985 10.164235 -30.547966 10.109395 -19.039539 67.054095 -2.012681 -11.804555 0.535751 0.644830 0.168670 0.205050 -4.325775 -1.160372 -8.055952 12.405061 -1.250815 18.113553 -3.895903 0.230156 12.027236 2.031026 -0.138960 -7.312081 -1.731731 0.979958 31.179305 -6.284880 2.769240 -10.514070 7.996469 -15.358108 -0.845316 32.086136 -29.824100 -8.873317 26.874351 -6.370741 -2.868387 -4.065226 3.150715 0.157380 0.300610 -0.027940 0.305000 -12.211362 15.960272 2.502000 -21.447790 24.058098 -5.033879 -27.635362 11.866118 -4.362911 2.139033 -1.954417 -0.044380 0.253640 -0.349280 -0.175630 
0.266950 17.130910 -4.003400 -30.817762 84.736688 -35.738024 -15.980957 13.081147 2.976047 1.266498 -3.135560 -22.297180 -5.963716 5.432763 16.226028 -0.788024 3.576170 3.335641 0.879010 0.747120 0.676800 17.594463 -9.540528 3.729926 -7.735778 10.289139 -28.134216 7.823039 -17.129008 67.203340 -1.910319 -11.487104 0.633304 0.589060 0.207940 0.192390 -4.712438 -1.084657 -7.997307 13.067371 -0.482997 17.827041 -4.285849 1.350305 11.904554 1.861651 -0.778965 -7.538791 -2.881371 0.803928 31.383340 -5.953030 2.070310 -9.898770 7.807079 -14.682860 -0.646411 31.989066 -28.856757 -9.170721 31.699884 -6.347610 -3.386937 -4.088600 3.132829 0.189550 0.304610 -0.073670 0.277270 -11.817213 15.950719 2.920483 -22.560908 21.884375 -6.420653 -32.905295 12.245777 -5.162585 2.136759 -1.971859 -0.094050 0.269710 -0.288680 -0.194060 
